<?xml version="1.0" encoding="utf-8"?>
<svg viewBox="40 52 570 222" xmlns="http://www.w3.org/2000/svg">
  <defs>
    <filter id="filter0_dd_3_10" x="0" y="0" width="730" height="382" filterUnits="userSpaceOnUse" color-interpolation-filters="sRGB">
      <feFlood flood-opacity="0" result="BackgroundImageFix"/>
      <feColorMatrix in="SourceAlpha" type="matrix" values="0 0 0 0 0 0 0 0 0 0 0 0 0 0 0 0 0 0 127 0" result="hardAlpha"/>
      <feOffset dx="40" dy="28"/>
      <feGaussianBlur stdDeviation="40"/>
      <feComposite in2="hardAlpha" operator="out"/>
      <feColorMatrix type="matrix" values="0 0 0 0 0 0 0 0 0 0 0 0 0 0 0 0 0 0 0.08 0"/>
      <feBlend mode="normal" in2="BackgroundImageFix" result="effect1_dropShadow_3_10"/>
      <feColorMatrix in="SourceAlpha" type="matrix" values="0 0 0 0 0 0 0 0 0 0 0 0 0 0 0 0 0 0 127 0" result="hardAlpha"/>
      <feOffset dx="-8" dy="-4"/>
      <feGaussianBlur stdDeviation="16"/>
      <feComposite in2="hardAlpha" operator="out"/>
      <feColorMatrix type="matrix" values="0 0 0 0 0 0 0 0 0 0 0 0 0 0 0 0 0 0 0.08 0"/>
      <feBlend mode="normal" in2="effect1_dropShadow_3_10" result="effect2_dropShadow_3_10"/>
      <feBlend mode="normal" in="SourceGraphic" in2="effect2_dropShadow_3_10" result="shape"/>
    </filter>
    <clipPath id="clip0_3_10">
      <path d="M40 68C40 59.1634 47.1634 52 56 52H594C602.837 52 610 59.1634 610 68V258C610 266.837 602.837 274 594 274H56C47.1634 274 40 266.837 40 258V68Z" fill="white"/>
    </clipPath>
  </defs>
  <g filter="url(#filter0_dd_3_10)">
    <g clip-path="url(#clip0_3_10)">
      <path d="M40 68C40 59.1634 47.1634 52 56 52H594C602.837 52 610 59.1634 610 68V258C610 266.837 602.837 274 594 274H56C47.1634 274 40 266.837 40 258V68Z" fill="white"/>
      <rect x="40" y="52" width="570" height="8" fill="#A78BFA"/>
      <path d="M171 168.302C171 164.24 170.635 160.333 169.958 156.583H116V178.771H146.833C145.479 185.906 141.417 191.948 135.323 196.01V210.438H153.917C164.75 200.438 171 185.75 171 168.302Z" fill="#4285F4"/>
      <path d="M116 224.292C131.469 224.292 144.438 219.187 153.917 210.437L135.323 196.01C130.219 199.448 123.708 201.531 116 201.531C101.104 201.531 88.448 191.479 83.9167 177.938H64.8542V192.729C74.2813 211.427 93.6042 224.292 116 224.292Z" fill="#34A853"/>
      <path d="M83.9166 177.885C82.7708 174.448 82.0937 170.802 82.0937 167C82.0937 163.198 82.7708 159.552 83.9166 156.115V141.323H64.8541C60.9478 149.031 58.7083 157.729 58.7083 167C58.7083 176.271 60.9478 184.969 64.8541 192.677L79.6978 181.115L83.9166 177.885Z" fill="#FBBC05"/>
      <path d="M116 132.521C124.438 132.521 131.938 135.438 137.927 141.063L154.333 124.656C144.386 115.385 131.469 109.708 116 109.708C93.6042 109.708 74.2813 122.573 64.8542 141.323L83.9167 156.115C88.448 142.573 101.104 132.521 116 132.521Z" fill="#EA4335"/>
      <path d="M216.428 121.384C214.721 121.384 213.143 121.075 211.692 120.456C210.241 119.837 208.972 118.973 207.884 117.864C206.796 116.755 205.943 115.453 205.324 113.96C204.727 112.467 204.428 110.835 204.428 109.064C204.428 107.293 204.716 105.661 205.292 104.168C205.889 102.653 206.721 101.352 207.788 100.264C208.876 99.1547 210.145 98.3013 211.596 97.704C213.047 97.0853 214.625 96.776 216.332 96.776C218.039 96.776 219.564 97.064 220.908 97.64C222.273 98.216 223.425 98.984 224.364 99.944C225.303 100.883 225.975 101.917 226.38 103.048L222.508 104.904C222.06 103.667 221.303 102.664 220.236 101.896C219.169 101.128 217.868 100.744 216.332 100.744C214.839 100.744 213.516 101.096 212.364 101.8C211.233 102.504 210.348 103.475 209.708 104.712C209.089 105.949 208.78 107.4 208.78 109.064C208.78 110.728 209.1 112.189 209.74 113.448C210.401 114.685 211.308 115.656 212.46 116.36C213.612 117.064 214.935 117.416 216.428 117.416C217.644 117.416 218.764 117.181 219.788 116.712C220.812 116.221 221.633 115.539 222.252 114.664C222.871 113.768 223.18 112.712 223.18 111.496V109.672L225.164 111.4H216.332V107.72H227.532V110.12C227.532 111.955 227.223 113.576 226.604 114.984C225.985 116.392 225.143 117.576 224.076 118.536C223.031 119.475 221.847 120.189 220.524 120.68C219.201 121.149 217.836 121.384 216.428 121.384ZM239.136 121.384C237.429 121.384 235.872 120.989 234.464 120.2C233.077 119.411 231.968 118.333 231.136 116.968C230.325 115.603 229.92 114.045 229.92 112.296C229.92 110.547 230.325 108.989 231.136 107.624C231.968 106.259 233.077 105.181 234.464 104.392C235.851 103.603 237.408 103.208 239.136 103.208C240.843 103.208 242.389 103.603 243.776 104.392C245.163 105.181 246.261 106.259 247.072 107.624C247.904 108.968 248.32 110.525 248.32 112.296C248.32 114.045 247.904 115.603 247.072 116.968C246.24 118.333 245.131 119.411 243.744 120.2C242.357 120.989 240.821 121.384 239.136 121.384ZM239.136 117.544C240.075 117.544 240.896 117.32 241.6 116.872C242.325 116.424 242.891 115.805 243.296 115.016C243.723 114.205 243.936 113.299 243.936 112.296C243.936 111.272 243.723 110.376 243.296 109.608C242.891 108.819 242.325 108.2 241.6 107.752C240.896 107.283 240.075 107.048 239.136 107.048C238.176 107.048 237.333 107.283 236.608 107.752C235.883 108.2 235.307 108.819 234.88 109.608C234.475 110.376 234.272 111.272 234.272 112.296C234.272 113.299 234.475 114.205 234.88 115.016C235.307 115.805 235.883 116.424 236.608 116.872C237.333 117.32 238.176 117.544 239.136 117.544ZM260.011 121.384C258.304 121.384 256.747 120.989 255.339 120.2C253.952 119.411 252.843 118.333 252.011 116.968C251.2 115.603 250.795 114.045 250.795 112.296C250.795 110.547 251.2 108.989 252.011 107.624C252.843 106.259 253.952 105.181 255.339 104.392C256.726 103.603 258.283 103.208 260.011 103.208C261.718 103.208 263.264 103.603 264.651 104.392C266.038 105.181 267.136 106.259 267.947 107.624C268.779 108.968 269.195 110.525 269.195 112.296C269.195 114.045 268.779 115.603 267.947 116.968C267.115 118.333 266.006 119.411 264.619 120.2C263.232 120.989 261.696 121.384 260.011 121.384ZM260.011 117.544C260.95 117.544 261.771 117.32 262.475 116.872C263.2 116.424 263.766 115.805 264.171 115.016C264.598 114.205 264.811 113.299 264.811 112.296C264.811 111.272 264.598 110.376 264.171 109.608C263.766 108.819 263.2 108.2 262.475 107.752C261.771 107.283 260.95 107.048 260.011 107.048C259.051 107.048 258.208 107.283 257.483 107.752C256.758 108.2 256.182 108.819 255.755 109.608C255.35 110.376 255.147 111.272 255.147 112.296C255.147 113.299 255.35 114.205 255.755 115.016C256.182 115.805 256.758 116.424 257.483 116.872C258.208 117.32 259.051 117.544 260.011 117.544ZM280.822 128.04C279.521 128.04 278.315 127.827 277.206 127.4C276.097 126.973 275.137 126.376 274.326 125.608C273.537 124.861 272.961 123.976 272.598 122.952L276.502 121.48C276.758 122.291 277.259 122.941 278.006 123.432C278.774 123.944 279.713 124.2 280.822 124.2C281.675 124.2 282.422 124.04 283.062 123.72C283.723 123.4 284.235 122.931 284.598 122.312C284.961 121.715 285.142 120.989 285.142 120.136V116.168L285.942 117.128C285.345 118.173 284.545 118.963 283.542 119.496C282.539 120.029 281.398 120.296 280.118 120.296C278.497 120.296 277.046 119.923 275.766 119.176C274.486 118.429 273.483 117.405 272.758 116.104C272.033 114.803 271.67 113.341 271.67 111.72C271.67 110.077 272.033 108.616 272.758 107.336C273.483 106.056 274.475 105.053 275.734 104.328C276.993 103.581 278.422 103.208 280.022 103.208C281.323 103.208 282.465 103.485 283.446 104.04C284.449 104.573 285.281 105.352 285.942 106.376L285.366 107.432V103.592H289.334V120.136C289.334 121.651 288.961 123.005 288.214 124.2C287.489 125.395 286.486 126.333 285.206 127.016C283.947 127.699 282.486 128.04 280.822 128.04ZM280.63 116.424C281.526 116.424 282.305 116.232 282.966 115.848C283.649 115.443 284.182 114.888 284.566 114.184C284.95 113.48 285.142 112.669 285.142 111.752C285.142 110.856 284.939 110.056 284.534 109.352C284.15 108.627 283.617 108.061 282.934 107.656C282.273 107.251 281.505 107.048 280.63 107.048C279.755 107.048 278.966 107.251 278.262 107.656C277.558 108.061 277.003 108.627 276.598 109.352C276.214 110.056 276.022 110.856 276.022 111.752C276.022 112.648 276.214 113.448 276.598 114.152C277.003 114.856 277.547 115.411 278.23 115.816C278.934 116.221 279.734 116.424 280.63 116.424ZM293.249 121V96.776H297.441V121H293.249ZM309.567 121.384C307.775 121.384 306.207 120.979 304.863 120.168C303.519 119.357 302.474 118.259 301.727 116.872C300.981 115.485 300.607 113.949 300.607 112.264C300.607 110.515 300.981 108.968 301.727 107.624C302.495 106.259 303.53 105.181 304.831 104.392C306.154 103.603 307.626 103.208 309.247 103.208C310.613 103.208 311.807 103.432 312.831 103.88C313.877 104.328 314.762 104.947 315.487 105.736C316.213 106.525 316.767 107.432 317.151 108.456C317.535 109.459 317.727 110.547 317.727 111.72C317.727 112.019 317.706 112.328 317.663 112.648C317.642 112.968 317.589 113.245 317.503 113.48H304.063V110.28H315.135L313.151 111.784C313.343 110.803 313.29 109.928 312.991 109.16C312.714 108.392 312.245 107.784 311.583 107.336C310.943 106.888 310.165 106.664 309.247 106.664C308.373 106.664 307.594 106.888 306.911 107.336C306.229 107.763 305.706 108.403 305.343 109.256C305.002 110.088 304.874 111.101 304.959 112.296C304.874 113.363 305.013 114.312 305.375 115.144C305.759 115.955 306.314 116.584 307.039 117.032C307.786 117.48 308.639 117.704 309.599 117.704C310.559 117.704 311.37 117.501 312.031 117.096C312.714 116.691 313.247 116.147 313.631 115.464L317.023 117.128C316.682 117.96 316.149 118.696 315.423 119.336C314.698 119.976 313.834 120.477 312.831 120.84C311.85 121.203 310.762 121.384 309.567 121.384ZM326.945 121V97.16H335.809C337.43 97.16 338.859 97.4587 340.097 98.056C341.355 98.632 342.337 99.4853 343.041 100.616C343.745 101.725 344.097 103.08 344.097 104.68C344.097 106.323 343.702 107.72 342.913 108.872C342.145 110.024 341.099 110.877 339.777 111.432L345.249 121H340.321L334.465 110.536L337.281 112.2H331.297V121H326.945ZM331.297 108.36H335.873C336.662 108.36 337.345 108.211 337.921 107.912C338.497 107.592 338.945 107.155 339.265 106.6C339.585 106.045 339.745 105.405 339.745 104.68C339.745 103.933 339.585 103.293 339.265 102.76C338.945 102.205 338.497 101.779 337.921 101.48C337.345 101.16 336.662 101 335.873 101H331.297V108.36ZM353.029 121.384C351.813 121.384 350.757 121.181 349.861 120.776C348.965 120.371 348.272 119.795 347.781 119.048C347.29 118.28 347.045 117.395 347.045 116.392C347.045 115.432 347.258 114.579 347.685 113.832C348.112 113.064 348.773 112.424 349.669 111.912C350.565 111.4 351.696 111.037 353.061 110.824L358.757 109.896V113.096L353.861 113.928C353.029 114.077 352.41 114.344 352.005 114.728C351.6 115.112 351.397 115.613 351.397 116.232C351.397 116.829 351.621 117.309 352.069 117.672C352.538 118.013 353.114 118.184 353.797 118.184C354.672 118.184 355.44 118.003 356.101 117.64C356.784 117.256 357.306 116.733 357.669 116.072C358.053 115.411 358.245 114.685 358.245 113.896V109.416C358.245 108.669 357.946 108.051 357.349 107.56C356.773 107.048 356.005 106.792 355.045 106.792C354.149 106.792 353.349 107.037 352.645 107.528C351.962 107.997 351.461 108.627 351.141 109.416L347.717 107.752C348.058 106.835 348.592 106.045 349.317 105.384C350.064 104.701 350.938 104.168 351.941 103.784C352.944 103.4 354.032 103.208 355.205 103.208C356.634 103.208 357.893 103.475 358.981 104.008C360.069 104.52 360.912 105.245 361.509 106.184C362.128 107.101 362.437 108.179 362.437 109.416V121H358.469V118.024L359.365 117.96C358.917 118.707 358.384 119.336 357.765 119.848C357.146 120.339 356.442 120.723 355.653 121C354.864 121.256 353.989 121.384 353.029 121.384ZM373.935 121.192C371.972 121.192 370.447 120.659 369.359 119.592C368.292 118.504 367.759 116.979 367.759 115.016V107.336H364.751V103.592H365.071C365.924 103.592 366.586 103.368 367.055 102.92C367.524 102.472 367.759 101.821 367.759 100.968V99.624H371.951V103.592H375.951V107.336H371.951V114.792C371.951 115.368 372.047 115.859 372.239 116.264C372.452 116.669 372.772 116.979 373.199 117.192C373.647 117.405 374.212 117.512 374.895 117.512C375.044 117.512 375.215 117.501 375.407 117.48C375.62 117.459 375.823 117.437 376.015 117.416V121C375.716 121.043 375.375 121.085 374.991 121.128C374.607 121.171 374.255 121.192 373.935 121.192ZM379.218 121V103.592H383.41V121H379.218ZM379.218 101.64V97.16H383.41V101.64H379.218ZM387.28 121V103.592H391.216V107.016L390.896 106.408C391.301 105.363 391.963 104.573 392.88 104.04C393.819 103.485 394.907 103.208 396.144 103.208C397.424 103.208 398.555 103.485 399.536 104.04C400.539 104.595 401.317 105.373 401.872 106.376C402.427 107.357 402.704 108.499 402.704 109.8V121H398.512V110.792C398.512 110.024 398.363 109.363 398.064 108.808C397.765 108.253 397.349 107.827 396.816 107.528C396.304 107.208 395.696 107.048 394.992 107.048C394.309 107.048 393.701 107.208 393.168 107.528C392.635 107.827 392.219 108.253 391.92 108.808C391.621 109.363 391.472 110.024 391.472 110.792V121H387.28ZM414.697 128.04C413.396 128.04 412.19 127.827 411.081 127.4C409.972 126.973 409.012 126.376 408.201 125.608C407.412 124.861 406.836 123.976 406.473 122.952L410.377 121.48C410.633 122.291 411.134 122.941 411.881 123.432C412.649 123.944 413.588 124.2 414.697 124.2C415.55 124.2 416.297 124.04 416.937 123.72C417.598 123.4 418.11 122.931 418.473 122.312C418.836 121.715 419.017 120.989 419.017 120.136V116.168L419.817 117.128C419.22 118.173 418.42 118.963 417.417 119.496C416.414 120.029 415.273 120.296 413.993 120.296C412.372 120.296 410.921 119.923 409.641 119.176C408.361 118.429 407.358 117.405 406.633 116.104C405.908 114.803 405.545 113.341 405.545 111.72C405.545 110.077 405.908 108.616 406.633 107.336C407.358 106.056 408.35 105.053 409.609 104.328C410.868 103.581 412.297 103.208 413.897 103.208C415.198 103.208 416.34 103.485 417.321 104.04C418.324 104.573 419.156 105.352 419.817 106.376L419.241 107.432V103.592H423.209V120.136C423.209 121.651 422.836 123.005 422.089 124.2C421.364 125.395 420.361 126.333 419.081 127.016C417.822 127.699 416.361 128.04 414.697 128.04ZM414.505 116.424C415.401 116.424 416.18 116.232 416.841 115.848C417.524 115.443 418.057 114.888 418.441 114.184C418.825 113.48 419.017 112.669 419.017 111.752C419.017 110.856 418.814 110.056 418.409 109.352C418.025 108.627 417.492 108.061 416.809 107.656C416.148 107.251 415.38 107.048 414.505 107.048C413.63 107.048 412.841 107.251 412.137 107.656C411.433 108.061 410.878 108.627 410.473 109.352C410.089 110.056 409.897 110.856 409.897 111.752C409.897 112.648 410.089 113.448 410.473 114.152C410.878 114.856 411.422 115.411 412.105 115.816C412.809 116.221 413.609 116.424 414.505 116.424Z" fill="#6A6A6A"/>
      <path d="M220.001 188V180.32H204.161V174.08L219.521 152.24H227.441V174.08H232.961V180.32H227.441V188H220.001ZM209.585 176.768L208.193 174.08H220.001V158L221.873 158.576L209.585 176.768ZM240.598 188V180.8H247.798V188H240.598ZM269.168 188.576C266.48 188.576 264.16 188.08 262.208 187.088C260.288 186.096 258.816 184.768 257.792 183.104C256.768 181.44 256.256 179.632 256.256 177.68C256.256 175.344 256.864 173.392 258.08 171.824C259.328 170.256 261.152 169.072 263.552 168.272L263.072 170.096C261.376 169.584 260.016 168.528 258.992 166.928C258 165.328 257.504 163.552 257.504 161.6C257.504 159.68 258 157.968 258.992 156.464C259.984 154.96 261.36 153.792 263.12 152.96C264.88 152.096 266.896 151.664 269.168 151.664C271.44 151.664 273.44 152.096 275.168 152.96C276.928 153.792 278.304 154.96 279.296 156.464C280.32 157.968 280.832 159.68 280.832 161.6C280.832 163.552 280.336 165.328 279.344 166.928C278.352 168.528 276.992 169.6 275.264 170.144L274.832 168.224C277.232 169.12 279.056 170.352 280.304 171.92C281.552 173.456 282.176 175.392 282.176 177.728C282.176 179.68 281.648 181.488 280.592 183.152C279.568 184.784 278.08 186.096 276.128 187.088C274.176 188.08 271.856 188.576 269.168 188.576ZM269.168 182.336C270.288 182.336 271.264 182.128 272.096 181.712C272.928 181.296 273.568 180.72 274.016 179.984C274.496 179.248 274.736 178.4 274.736 177.44C274.736 176.448 274.496 175.6 274.016 174.896C273.568 174.16 272.928 173.6 272.096 173.216C271.264 172.8 270.288 172.592 269.168 172.592C268.08 172.592 267.12 172.8 266.288 173.216C265.488 173.6 264.848 174.16 264.368 174.896C263.92 175.6 263.696 176.448 263.696 177.44C263.696 178.4 263.92 179.248 264.368 179.984C264.848 180.72 265.488 181.296 266.288 181.712C267.12 182.128 268.08 182.336 269.168 182.336ZM269.168 166.352C270.032 166.352 270.768 166.16 271.376 165.776C272.016 165.392 272.512 164.88 272.864 164.24C273.216 163.6 273.392 162.896 273.392 162.128C273.392 161.328 273.216 160.608 272.864 159.968C272.512 159.328 272.016 158.832 271.376 158.48C270.768 158.096 270.032 157.904 269.168 157.904C268.336 157.904 267.6 158.096 266.96 158.48C266.32 158.832 265.824 159.328 265.472 159.968C265.12 160.608 264.944 161.328 264.944 162.128C264.944 162.896 265.12 163.6 265.472 164.24C265.824 164.88 266.32 165.392 266.96 165.776C267.6 166.16 268.336 166.352 269.168 166.352Z" fill="#A78BFA"/>
      <path d="M342.709 143.605C343.444 142.125 345.556 142.125 346.291 143.605L352.297 155.693C352.588 156.279 353.148 156.686 353.795 156.781L367.148 158.758C368.783 159 369.435 161.008 368.255 162.165L358.614 171.612C358.147 172.07 357.933 172.728 358.042 173.374L360.288 186.683C360.563 188.313 358.855 189.554 357.39 188.789L345.426 182.54C344.846 182.237 344.154 182.237 343.574 182.54L331.61 188.789C330.145 189.554 328.437 188.313 328.712 186.683L330.958 173.374C331.067 172.728 330.853 172.07 330.386 171.612L320.745 162.165C319.565 161.008 320.217 159 321.852 158.758L335.205 156.781C335.852 156.686 336.412 156.279 336.703 155.693L342.709 143.605Z" fill="#A78BFA"/>
      <path d="M398.709 143.605C399.444 142.125 401.556 142.125 402.291 143.605L408.297 155.693C408.588 156.279 409.148 156.686 409.795 156.781L423.148 158.758C424.783 159 425.435 161.008 424.255 162.165L414.614 171.612C414.147 172.07 413.933 172.728 414.042 173.374L416.288 186.683C416.563 188.313 414.855 189.554 413.39 188.789L401.426 182.54C400.846 182.237 400.154 182.237 399.574 182.54L387.61 188.789C386.145 189.554 384.437 188.313 384.712 186.683L386.958 173.374C387.067 172.728 386.853 172.07 386.386 171.612L376.745 162.165C375.565 161.008 376.217 159 377.852 158.758L391.205 156.781C391.852 156.686 392.412 156.279 392.703 155.693L398.709 143.605Z" fill="#A78BFA"/>
      <path d="M454.709 143.605C455.444 142.125 457.556 142.125 458.291 143.605L464.297 155.693C464.588 156.279 465.148 156.686 465.795 156.781L479.148 158.758C480.783 159 481.435 161.008 480.255 162.165L470.614 171.612C470.147 172.07 469.933 172.728 470.042 173.374L472.288 186.683C472.563 188.313 470.855 189.554 469.39 188.789L457.426 182.54C456.846 182.237 456.154 182.237 455.574 182.54L443.61 188.789C442.145 189.554 440.437 188.313 440.712 186.683L442.958 173.374C443.067 172.728 442.853 172.07 442.386 171.612L432.745 162.165C431.565 161.008 432.217 159 433.852 158.758L447.205 156.781C447.852 156.686 448.412 156.279 448.703 155.693L454.709 143.605Z" fill="#A78BFA"/>
      <path d="M510.709 143.605C511.444 142.125 513.556 142.125 514.291 143.605L520.297 155.693C520.588 156.279 521.148 156.686 521.795 156.781L535.148 158.758C536.783 159 537.435 161.008 536.255 162.165L526.614 171.612C526.147 172.07 525.933 172.728 526.042 173.374L528.288 186.683C528.563 188.313 526.855 189.554 525.39 188.789L513.426 182.54C512.846 182.237 512.154 182.237 511.574 182.54L499.61 188.789C498.145 189.554 496.437 188.313 496.712 186.683L498.958 173.374C499.067 172.728 498.853 172.07 498.386 171.612L488.745 162.165C487.565 161.008 488.217 159 489.852 158.758L503.205 156.781C503.852 156.686 504.412 156.279 504.703 155.693L510.709 143.605Z" fill="#A78BFA"/>
      <path d="M566.709 143.605C567.444 142.125 569.556 142.125 570.291 143.605L576.297 155.693C576.588 156.279 577.148 156.686 577.795 156.781L591.148 158.758C592.783 159 593.435 161.008 592.255 162.165L582.614 171.612C582.147 172.07 581.933 172.728 582.042 173.374L584.288 186.683C584.563 188.313 582.855 189.554 581.39 188.789L569.426 182.54C568.846 182.237 568.154 182.237 567.574 182.54L555.61 188.789C554.145 189.554 552.437 188.313 552.712 186.683L554.958 173.374C555.067 172.728 554.853 172.07 554.386 171.612L544.745 162.165C543.565 161.008 544.217 159 545.852 158.758L559.205 156.781C559.852 156.686 560.412 156.279 560.703 155.693L566.709 143.605Z" fill="#A78BFA"/>
      <path d="M211.034 237.288C209.898 237.288 208.866 237.072 207.938 236.64C207.01 236.208 206.226 235.632 205.586 234.912C204.946 234.176 204.49 233.368 204.218 232.488L205.946 231.84C206.362 233.056 207.01 233.984 207.89 234.624C208.77 235.248 209.818 235.56 211.034 235.56C211.802 235.56 212.474 235.44 213.05 235.2C213.642 234.944 214.098 234.592 214.418 234.144C214.738 233.696 214.898 233.176 214.898 232.584C214.898 231.704 214.658 231.024 214.178 230.544C213.698 230.064 213.01 229.696 212.114 229.44L208.898 228.48C207.634 228.112 206.658 227.496 205.97 226.632C205.298 225.768 204.962 224.784 204.962 223.68C204.962 222.736 205.194 221.904 205.658 221.184C206.122 220.448 206.754 219.872 207.554 219.456C208.37 219.04 209.29 218.832 210.314 218.832C211.386 218.832 212.346 219.032 213.194 219.432C214.058 219.816 214.786 220.328 215.378 220.968C215.97 221.608 216.394 222.32 216.65 223.104L214.97 223.776C214.586 222.72 213.986 221.92 213.17 221.376C212.37 220.832 211.426 220.56 210.338 220.56C209.65 220.56 209.042 220.68 208.514 220.92C208.002 221.16 207.602 221.504 207.314 221.952C207.026 222.4 206.882 222.928 206.882 223.536C206.882 224.272 207.114 224.936 207.578 225.528C208.042 226.104 208.754 226.536 209.714 226.824L212.546 227.664C213.954 228.08 215.018 228.68 215.738 229.464C216.458 230.248 216.818 231.232 216.818 232.416C216.818 233.376 216.57 234.224 216.074 234.96C215.594 235.68 214.914 236.248 214.034 236.664C213.17 237.08 212.17 237.288 211.034 237.288ZM226.118 237.288C224.918 237.288 223.83 237 222.854 236.424C221.894 235.832 221.134 235.024 220.574 234C220.014 232.976 219.734 231.816 219.734 230.52C219.734 229.224 220.006 228.08 220.55 227.088C221.094 226.08 221.83 225.288 222.758 224.712C223.702 224.136 224.758 223.848 225.926 223.848C226.854 223.848 227.678 224.024 228.398 224.376C229.134 224.712 229.758 225.176 230.27 225.768C230.782 226.344 231.174 227 231.446 227.736C231.718 228.456 231.854 229.2 231.854 229.968C231.854 230.128 231.846 230.312 231.83 230.52C231.814 230.712 231.79 230.912 231.758 231.12H220.886V229.44H230.726L229.862 230.16C230.006 229.28 229.902 228.496 229.55 227.808C229.214 227.104 228.726 226.552 228.086 226.152C227.446 225.736 226.726 225.528 225.926 225.528C225.126 225.528 224.382 225.736 223.694 226.152C223.022 226.568 222.494 227.152 222.11 227.904C221.726 228.64 221.574 229.52 221.654 230.544C221.574 231.568 221.734 232.464 222.134 233.232C222.55 233.984 223.11 234.568 223.814 234.984C224.534 235.4 225.302 235.608 226.118 235.608C227.062 235.608 227.854 235.384 228.494 234.936C229.134 234.488 229.654 233.928 230.054 233.256L231.59 234.072C231.334 234.648 230.942 235.184 230.414 235.68C229.886 236.16 229.254 236.552 228.518 236.856C227.798 237.144 226.998 237.288 226.118 237.288ZM240.884 237.288C239.684 237.288 238.596 237 237.62 236.424C236.66 235.832 235.9 235.024 235.34 234C234.78 232.976 234.5 231.816 234.5 230.52C234.5 229.224 234.772 228.08 235.316 227.088C235.86 226.08 236.596 225.288 237.524 224.712C238.468 224.136 239.524 223.848 240.692 223.848C241.62 223.848 242.444 224.024 243.164 224.376C243.9 224.712 244.524 225.176 245.036 225.768C245.548 226.344 245.94 227 246.212 227.736C246.484 228.456 246.62 229.2 246.62 229.968C246.62 230.128 246.612 230.312 246.596 230.52C246.58 230.712 246.556 230.912 246.524 231.12H235.652V229.44H245.492L244.628 230.16C244.772 229.28 244.668 228.496 244.316 227.808C243.98 227.104 243.492 226.552 242.852 226.152C242.212 225.736 241.492 225.528 240.692 225.528C239.892 225.528 239.148 225.736 238.46 226.152C237.788 226.568 237.26 227.152 236.876 227.904C236.492 228.64 236.34 229.52 236.42 230.544C236.34 231.568 236.5 232.464 236.9 233.232C237.316 233.984 237.876 234.568 238.58 234.984C239.3 235.4 240.068 235.608 240.884 235.608C241.828 235.608 242.62 235.384 243.26 234.936C243.9 234.488 244.42 233.928 244.82 233.256L246.356 234.072C246.1 234.648 245.708 235.184 245.18 235.68C244.652 236.16 244.02 236.552 243.284 236.856C242.564 237.144 241.764 237.288 240.884 237.288ZM257.591 237.288C256.775 237.288 256.047 237.136 255.407 236.832C254.767 236.512 254.263 236.08 253.895 235.536C253.527 234.992 253.343 234.368 253.343 233.664C253.343 232.992 253.487 232.384 253.775 231.84C254.063 231.28 254.511 230.808 255.119 230.424C255.727 230.04 256.503 229.768 257.447 229.608L262.487 228.768V230.4L257.879 231.168C256.951 231.328 256.279 231.624 255.863 232.056C255.463 232.488 255.263 233 255.263 233.592C255.263 234.168 255.487 234.656 255.935 235.056C256.399 235.456 256.991 235.656 257.711 235.656C258.591 235.656 259.359 235.472 260.015 235.104C260.671 234.72 261.183 234.208 261.551 233.568C261.919 232.928 262.103 232.216 262.103 231.432V228.168C262.103 227.4 261.823 226.776 261.263 226.296C260.703 225.816 259.975 225.576 259.079 225.576C258.295 225.576 257.607 225.776 257.015 226.176C256.423 226.56 255.983 227.064 255.695 227.688L254.063 226.8C254.303 226.256 254.679 225.76 255.191 225.312C255.719 224.864 256.319 224.512 256.991 224.256C257.663 223.984 258.359 223.848 259.079 223.848C260.023 223.848 260.855 224.032 261.575 224.4C262.311 224.768 262.879 225.28 263.279 225.936C263.695 226.576 263.903 227.32 263.903 228.168V237H262.103V234.432L262.367 234.696C262.143 235.176 261.791 235.616 261.311 236.016C260.847 236.4 260.295 236.712 259.655 236.952C259.031 237.176 258.343 237.288 257.591 237.288ZM267.606 237V218.832H269.406V237H267.606ZM273.09 237V218.832H274.89V237H273.09ZM288.677 237.288C287.461 237.288 286.357 237 285.365 236.424C284.373 235.832 283.581 235.032 282.989 234.024C282.413 233 282.125 231.84 282.125 230.544C282.125 229.264 282.413 228.12 282.989 227.112C283.565 226.104 284.341 225.312 285.317 224.736C286.309 224.144 287.429 223.848 288.677 223.848C289.925 223.848 291.037 224.136 292.013 224.712C293.005 225.288 293.781 226.08 294.341 227.088C294.917 228.096 295.205 229.248 295.205 230.544C295.205 231.856 294.909 233.024 294.317 234.048C293.725 235.056 292.933 235.848 291.941 236.424C290.965 237 289.877 237.288 288.677 237.288ZM288.677 235.488C289.541 235.488 290.317 235.272 291.005 234.84C291.709 234.408 292.261 233.816 292.661 233.064C293.077 232.312 293.285 231.472 293.285 230.544C293.285 229.616 293.077 228.784 292.661 228.048C292.261 227.312 291.709 226.728 291.005 226.296C290.317 225.864 289.541 225.648 288.677 225.648C287.813 225.648 287.029 225.864 286.325 226.296C285.637 226.728 285.085 227.312 284.669 228.048C284.253 228.784 284.045 229.616 284.045 230.544C284.045 231.472 284.253 232.312 284.669 233.064C285.085 233.816 285.637 234.408 286.325 234.84C287.029 235.272 287.813 235.488 288.677 235.488ZM302.939 237.288C302.043 237.288 301.227 237.08 300.491 236.664C299.755 236.232 299.171 235.64 298.739 234.888C298.323 234.12 298.115 233.24 298.115 232.248V224.136H299.915V232.032C299.915 232.72 300.051 233.328 300.323 233.856C300.611 234.368 301.003 234.768 301.499 235.056C302.011 235.344 302.595 235.488 303.251 235.488C303.907 235.488 304.491 235.344 305.003 235.056C305.515 234.752 305.915 234.328 306.203 233.784C306.491 233.224 306.635 232.56 306.635 231.792V224.136H308.435V237H306.635V234.504L307.043 234.6C306.739 235.432 306.219 236.088 305.483 236.568C304.747 237.048 303.899 237.288 302.939 237.288ZM312.137 237V224.136H313.937V226.248L313.697 225.936C314.001 225.328 314.457 224.848 315.065 224.496C315.689 224.144 316.441 223.968 317.321 223.968H318.137V225.768H317.009C316.081 225.768 315.337 226.056 314.777 226.632C314.217 227.208 313.937 228.024 313.937 229.08V237H312.137ZM324.325 237V224.136H326.125V226.248L325.885 225.936C326.189 225.328 326.645 224.848 327.253 224.496C327.877 224.144 328.629 223.968 329.509 223.968H330.325V225.768H329.197C328.269 225.768 327.525 226.056 326.965 226.632C326.405 227.208 326.125 228.024 326.125 229.08V237H324.325ZM338.29 237.288C337.09 237.288 336.002 237 335.026 236.424C334.066 235.832 333.306 235.024 332.746 234C332.186 232.976 331.906 231.816 331.906 230.52C331.906 229.224 332.178 228.08 332.722 227.088C333.266 226.08 334.002 225.288 334.93 224.712C335.874 224.136 336.93 223.848 338.098 223.848C339.026 223.848 339.85 224.024 340.57 224.376C341.306 224.712 341.93 225.176 342.442 225.768C342.954 226.344 343.346 227 343.618 227.736C343.89 228.456 344.026 229.2 344.026 229.968C344.026 230.128 344.018 230.312 344.002 230.52C343.986 230.712 343.962 230.912 343.93 231.12H333.058V229.44H342.898L342.034 230.16C342.178 229.28 342.074 228.496 341.722 227.808C341.386 227.104 340.898 226.552 340.258 226.152C339.618 225.736 338.898 225.528 338.098 225.528C337.298 225.528 336.554 225.736 335.866 226.152C335.194 226.568 334.666 227.152 334.282 227.904C333.898 228.64 333.746 229.52 333.826 230.544C333.746 231.568 333.906 232.464 334.306 233.232C334.722 233.984 335.282 234.568 335.986 234.984C336.706 235.4 337.474 235.608 338.29 235.608C339.234 235.608 340.026 235.384 340.666 234.936C341.306 234.488 341.826 233.928 342.226 233.256L343.762 234.072C343.506 234.648 343.114 235.184 342.586 235.68C342.058 236.16 341.426 236.552 340.69 236.856C339.97 237.144 339.17 237.288 338.29 237.288ZM350.397 237L345.381 224.136H347.397L351.621 235.416H350.973L355.221 224.136H357.261L352.197 237H350.397ZM359.364 237V224.136H361.164V237H359.364ZM359.364 221.76V219.12H361.164V221.76H359.364ZM370.704 237.288C369.504 237.288 368.416 237 367.44 236.424C366.48 235.832 365.72 235.024 365.16 234C364.6 232.976 364.32 231.816 364.32 230.52C364.32 229.224 364.592 228.08 365.136 227.088C365.68 226.08 366.416 225.288 367.344 224.712C368.288 224.136 369.344 223.848 370.512 223.848C371.44 223.848 372.264 224.024 372.984 224.376C373.72 224.712 374.344 225.176 374.856 225.768C375.368 226.344 375.76 227 376.032 227.736C376.304 228.456 376.44 229.2 376.44 229.968C376.44 230.128 376.432 230.312 376.416 230.52C376.4 230.712 376.376 230.912 376.344 231.12H365.472V229.44H375.312L374.448 230.16C374.592 229.28 374.488 228.496 374.136 227.808C373.8 227.104 373.312 226.552 372.672 226.152C372.032 225.736 371.312 225.528 370.512 225.528C369.712 225.528 368.968 225.736 368.28 226.152C367.608 226.568 367.08 227.152 366.696 227.904C366.312 228.64 366.16 229.52 366.24 230.544C366.16 231.568 366.32 232.464 366.72 233.232C367.136 233.984 367.696 234.568 368.4 234.984C369.12 235.4 369.888 235.608 370.704 235.608C371.648 235.608 372.44 235.384 373.08 234.936C373.72 234.488 374.24 233.928 374.64 233.256L376.176 234.072C375.92 234.648 375.528 235.184 375 235.68C374.472 236.16 373.84 236.552 373.104 236.856C372.384 237.144 371.584 237.288 370.704 237.288ZM382.446 237L378.03 224.136H380.07L383.718 235.392H382.998L386.43 224.136H388.23L391.662 235.392H390.942L394.614 224.136H396.63L392.214 237H390.414L387.078 225.984H387.582L384.246 237H382.446ZM403.203 237.288C401.971 237.288 400.891 236.976 399.963 236.352C399.035 235.728 398.363 234.88 397.947 233.808L399.459 233.088C399.827 233.872 400.339 234.496 400.995 234.96C401.667 235.424 402.403 235.656 403.203 235.656C403.971 235.656 404.619 235.472 405.147 235.104C405.675 234.72 405.939 234.224 405.939 233.616C405.939 233.168 405.811 232.816 405.555 232.56C405.299 232.288 405.003 232.08 404.667 231.936C404.331 231.792 404.035 231.688 403.779 231.624L401.931 231.096C400.747 230.76 399.891 230.288 399.363 229.68C398.835 229.072 398.571 228.368 398.571 227.568C398.571 226.816 398.763 226.16 399.147 225.6C399.531 225.04 400.051 224.608 400.707 224.304C401.363 224 402.091 223.848 402.891 223.848C403.979 223.848 404.963 224.136 405.843 224.712C406.739 225.272 407.371 226.056 407.739 227.064L406.203 227.784C405.883 227.064 405.419 226.504 404.811 226.104C404.219 225.688 403.555 225.48 402.819 225.48C402.099 225.48 401.523 225.664 401.091 226.032C400.659 226.4 400.443 226.864 400.443 227.424C400.443 227.856 400.555 228.2 400.779 228.456C401.003 228.712 401.259 228.904 401.547 229.032C401.851 229.16 402.115 229.256 402.339 229.32L404.475 229.944C405.515 230.248 406.323 230.72 406.899 231.36C407.491 232 407.787 232.752 407.787 233.616C407.787 234.32 407.587 234.952 407.187 235.512C406.803 236.072 406.267 236.512 405.579 236.832C404.891 237.136 404.099 237.288 403.203 237.288Z" fill="#868686"/>
    </g>
  </g>
</svg>