<svg width="131" height="32" viewBox="0 0 131 32" fill="none" xmlns="http://www.w3.org/2000/svg">
<path d="M34.2051 11.3416H47.3839V13.8031H42.202V27.6405H39.3525V13.8031H34.1936V11.3416H34.2051ZM46.8209 15.839H49.2567V18.1165H49.3027C49.3831 17.7944 49.5325 17.4838 49.7508 17.1848C49.9691 16.8857 50.2333 16.5982 50.5436 16.3566C50.8538 16.1036 51.1985 15.908 51.5776 15.747C51.9568 15.5974 52.3475 15.5169 52.7381 15.5169C53.0368 15.5169 53.2551 15.5284 53.37 15.5399C53.4849 15.5514 53.5998 15.5744 53.7262 15.5859V18.0935C53.5424 18.059 53.3586 18.036 53.1632 18.013C52.9679 17.99 52.7841 17.9784 52.6002 17.9784C52.1636 17.9784 51.75 18.0705 51.3593 18.243C50.9687 18.4155 50.6355 18.6801 50.3482 19.0137C50.061 19.3587 49.8312 19.7728 49.6588 20.2789C49.4865 20.785 49.4061 21.3602 49.4061 22.0158V27.629H46.8094V15.839H46.8209ZM65.6641 27.6405H63.1134V25.9956H63.0674C62.7457 26.5938 62.2746 27.0654 61.6427 27.4219C61.0107 27.7785 60.3673 27.9625 59.7124 27.9625C58.1613 27.9625 57.0353 27.583 56.3459 26.8123C55.6565 26.0416 55.3118 24.8799 55.3118 23.3271V15.839H57.9085V23.074C57.9085 24.1092 58.1038 24.8454 58.506 25.271C58.8966 25.6966 59.4596 25.9151 60.172 25.9151C60.7235 25.9151 61.1716 25.8346 61.5393 25.6621C61.9069 25.4895 62.2057 25.271 62.424 24.9834C62.6538 24.7074 62.8146 24.3623 62.9181 23.9712C63.0215 23.5801 63.0674 23.1545 63.0674 22.6944V15.8505H65.6641V27.6405ZM70.0877 23.8562C70.1681 24.6153 70.4553 25.1445 70.9494 25.455C71.455 25.7541 72.0524 25.9151 72.7533 25.9151C72.9946 25.9151 73.2703 25.8921 73.5806 25.8576C73.8908 25.8231 74.1895 25.7426 74.4538 25.6391C74.7295 25.5355 74.9479 25.3745 75.1317 25.1675C75.304 24.9604 75.3845 24.6959 75.373 24.3623C75.3615 24.0287 75.2351 23.7527 75.0053 23.5456C74.7755 23.3271 74.4883 23.166 74.1321 23.028C73.7759 22.9015 73.3737 22.7865 72.9142 22.6944C72.4546 22.6024 71.995 22.4989 71.5239 22.3954C71.0413 22.2919 70.5702 22.1538 70.1221 22.0043C69.674 21.8548 69.2719 21.6477 68.9157 21.3832C68.5595 21.1301 68.2723 20.7965 68.0655 20.394C67.8472 19.9914 67.7438 19.4968 67.7438 18.8986C67.7438 18.2545 67.9046 17.7254 68.2148 17.2883C68.5251 16.8512 68.9272 16.5061 69.3983 16.2416C69.8809 15.977 70.4094 15.793 70.9954 15.678C71.5814 15.5744 72.1443 15.5169 72.6729 15.5169C73.2818 15.5169 73.8678 15.5859 74.4193 15.7125C74.9708 15.839 75.4764 16.046 75.9245 16.3451C76.3726 16.6327 76.7403 17.0122 77.039 17.4723C77.3377 17.9324 77.5216 18.4961 77.602 19.1517H74.8904C74.764 18.5306 74.4883 18.105 74.0402 17.8979C73.5921 17.6794 73.075 17.5759 72.5005 17.5759C72.3167 17.5759 72.0984 17.5874 71.8456 17.6219C71.5928 17.6564 71.363 17.7139 71.1332 17.7944C70.9149 17.8749 70.7311 18.0015 70.5702 18.1625C70.4209 18.3235 70.3405 18.5306 70.3405 18.7951C70.3405 19.1172 70.4553 19.3702 70.6737 19.5658C70.892 19.7613 71.1792 19.9224 71.5354 20.0604C71.8916 20.1869 72.2937 20.3019 72.7533 20.394C73.2129 20.486 73.684 20.5895 74.1665 20.693C74.6376 20.7965 75.0972 20.9346 75.5568 21.0841C76.0164 21.2336 76.4185 21.4407 76.7747 21.7052C77.1309 21.9698 77.4182 22.2919 77.6365 22.6829C77.8548 23.074 77.9697 23.5686 77.9697 24.1437C77.9697 24.8454 77.8088 25.432 77.4871 25.9266C77.1654 26.4097 76.7517 26.8123 76.2462 27.1114C75.7406 27.4104 75.1662 27.6405 74.5457 27.7785C73.9253 27.9165 73.3048 27.9856 72.6959 27.9856C71.949 27.9856 71.2596 27.905 70.6277 27.7325C69.9958 27.56 69.4443 27.3069 68.9847 26.9733C68.5251 26.6283 68.1574 26.2027 67.8931 25.6966C67.6289 25.1905 67.491 24.5808 67.468 23.8792H70.0877V23.8562ZM78.659 15.839H80.6238V12.2963H83.2205V15.839H85.5644V17.7829H83.2205V24.0862C83.2205 24.3623 83.232 24.5923 83.255 24.7994C83.2779 24.9949 83.3354 25.1675 83.4158 25.3055C83.4963 25.4435 83.6226 25.547 83.795 25.6161C83.9673 25.6851 84.1856 25.7196 84.4844 25.7196C84.6682 25.7196 84.852 25.7196 85.0359 25.7081C85.2197 25.6966 85.4036 25.6736 85.5874 25.6276V27.6405C85.3001 27.675 85.0129 27.698 84.7486 27.7325C84.4729 27.767 84.1971 27.7785 83.9099 27.7785C83.2205 27.7785 82.669 27.7095 82.2554 27.583C81.8417 27.4564 81.5085 27.2609 81.2787 27.0078C81.0374 26.7548 80.8881 26.4442 80.7962 26.0646C80.7157 25.6851 80.6583 25.248 80.6468 24.7649V17.8059H78.682V15.839H78.659ZM87.4028 15.839H89.8616V17.4378H89.9075C90.2752 16.7477 90.7808 16.2646 91.4357 15.9655C92.0906 15.6665 92.7915 15.5169 93.5613 15.5169C94.492 15.5169 95.2963 15.678 95.9856 16.0115C96.675 16.3336 97.2495 16.7822 97.7091 17.3573C98.1687 17.9324 98.5019 18.5996 98.7317 19.3587C98.9615 20.1179 99.0764 20.9346 99.0764 21.7973C99.0764 22.5909 98.973 23.3616 98.7662 24.0977C98.5593 24.8454 98.2491 25.501 97.8355 26.0762C97.4219 26.6513 96.8933 27.0999 96.2499 27.4449C95.6065 27.79 94.8596 27.9625 93.9864 27.9625C93.6073 27.9625 93.2281 27.928 92.8489 27.859C92.4698 27.79 92.1021 27.675 91.7574 27.5255C91.4127 27.3759 91.0795 27.1804 90.7923 26.9388C90.4935 26.6973 90.2522 26.4212 90.0454 26.1107H89.9995V31.9999H87.4028V15.839ZM96.4797 21.7512C96.4797 21.2221 96.4108 20.7045 96.2729 20.1984C96.135 19.6923 95.9282 19.2552 95.6524 18.8641C95.3767 18.4731 95.032 18.1625 94.6298 17.9324C94.2162 17.7024 93.7451 17.5759 93.2166 17.5759C92.1251 17.5759 91.2978 17.9554 90.7463 18.7146C90.1948 19.4738 89.919 20.486 89.919 21.7512C89.919 22.3494 89.988 22.9015 90.1373 23.4076C90.2867 23.9137 90.4935 24.3508 90.7923 24.7189C91.0795 25.0869 91.4242 25.3745 91.8263 25.5815C92.2285 25.8001 92.6996 25.9036 93.2281 25.9036C93.8256 25.9036 94.3196 25.7771 94.7333 25.5355C95.1469 25.294 95.4801 24.9719 95.7444 24.5923C96.0086 24.2013 96.2039 23.7642 96.3188 23.2696C96.4222 22.775 96.4797 22.2689 96.4797 21.7512ZM101.064 11.3416H103.661V13.8031H101.064V11.3416ZM101.064 15.839H103.661V27.6405H101.064V15.839ZM105.982 11.3416H108.578V27.6405H105.982V11.3416ZM116.541 27.9625C115.599 27.9625 114.76 27.8015 114.025 27.4909C113.289 27.1804 112.669 26.7433 112.152 26.2027C111.646 25.6506 111.256 24.9949 110.991 24.2358C110.727 23.4766 110.589 22.6369 110.589 21.7282C110.589 20.831 110.727 20.0029 110.991 19.2437C111.256 18.4846 111.646 17.8289 112.152 17.2768C112.657 16.7247 113.289 16.2991 114.025 15.9885C114.76 15.678 115.599 15.5169 116.541 15.5169C117.483 15.5169 118.322 15.678 119.057 15.9885C119.792 16.2991 120.413 16.7362 120.93 17.2768C121.436 17.8289 121.826 18.4846 122.09 19.2437C122.355 20.0029 122.493 20.831 122.493 21.7282C122.493 22.6369 122.355 23.4766 122.09 24.2358C121.826 24.9949 121.436 25.6506 120.93 26.2027C120.424 26.7548 119.792 27.1804 119.057 27.4909C118.322 27.8015 117.483 27.9625 116.541 27.9625ZM116.541 25.9036C117.115 25.9036 117.621 25.7771 118.046 25.5355C118.471 25.294 118.816 24.9719 119.092 24.5808C119.367 24.1898 119.563 23.7412 119.701 23.2466C119.827 22.752 119.896 22.2458 119.896 21.7282C119.896 21.2221 119.827 20.7275 119.701 20.2214C119.574 19.7153 119.367 19.2782 119.092 18.8871C118.816 18.4961 118.471 18.1855 118.046 17.9439C117.621 17.7024 117.115 17.5759 116.541 17.5759C115.966 17.5759 115.461 17.7024 115.036 17.9439C114.611 18.1855 114.266 18.5076 113.99 18.8871C113.714 19.2782 113.519 19.7153 113.381 20.2214C113.255 20.7275 113.186 21.2221 113.186 21.7282C113.186 22.2458 113.255 22.752 113.381 23.2466C113.508 23.7412 113.714 24.1898 113.99 24.5808C114.266 24.9719 114.611 25.294 115.036 25.5355C115.461 25.7886 115.966 25.9036 116.541 25.9036ZM123.251 15.839H125.216V12.2963H127.812V15.839H130.156V17.7829H127.812V24.0862C127.812 24.3623 127.824 24.5923 127.847 24.7994C127.87 24.9949 127.927 25.1675 128.008 25.3055C128.088 25.4435 128.214 25.547 128.387 25.6161C128.559 25.6851 128.777 25.7196 129.076 25.7196C129.26 25.7196 129.444 25.7196 129.628 25.7081C129.812 25.6966 129.995 25.6736 130.179 25.6276V27.6405C129.892 27.675 129.605 27.698 129.34 27.7325C129.065 27.767 128.789 27.7785 128.502 27.7785C127.812 27.7785 127.261 27.7095 126.847 27.583C126.434 27.4564 126.1 27.2609 125.871 27.0078C125.629 26.7548 125.48 26.4442 125.388 26.0646C125.308 25.6851 125.25 25.248 125.239 24.7649V17.8059H123.274V15.839H123.251Z" fill="#fff"/>
<path d="M31.1718 11.3414H19.2684L15.5916 0L11.9034 11.3414L0 11.3299L9.63993 18.3464L5.95171 29.6762L15.5916 22.6713L25.2201 29.6762L21.5433 18.3464L31.1718 11.3414Z" fill="#00B67A"/>
</svg>
